<svg width="100%" viewBox="0 0 720 320" xmlns="http://www.w3.org/2000/svg">
  <title>TSD Ventures — Modernization Solutions</title>

  <defs>
    <!-- Clean 2-stop gradients, one per prism — Tar Heel Blue / Black theme -->
    <linearGradient id="prism-t" x1="0%" y1="0%" x2="100%" y2="100%">
      <stop offset="0%" stop-color="#9FCAE3"/>
      <stop offset="100%" stop-color="#7BAFD4"/>
    </linearGradient>
    <linearGradient id="prism-s" x1="0%" y1="0%" x2="100%" y2="100%">
      <stop offset="0%" stop-color="#7BAFD4"/>
      <stop offset="100%" stop-color="#4A90BF"/>
    </linearGradient>
    <linearGradient id="prism-d" x1="0%" y1="0%" x2="100%" y2="100%">
      <stop offset="0%" stop-color="#13294B"/>
      <stop offset="100%" stop-color="#000000"/>
    </linearGradient>

    <!-- Wordmark divider -->
    <linearGradient id="divider" x1="0%" y1="0%" x2="100%" y2="0%">
      <stop offset="0%" stop-color="#7BAFD4" stop-opacity="0"/>
      <stop offset="50%" stop-color="#7BAFD4" stop-opacity="0.55"/>
      <stop offset="100%" stop-color="#13294B" stop-opacity="0"/>
    </linearGradient>
  </defs>

  <!-- === PRISMS === -->
  <!-- T (back) -->
  <path d="M230 40 L350 40 L310 200 L190 200 Z" fill="url(#prism-t)"/>
  <!-- S (middle) -->
  <path d="M320 40 L440 40 L400 200 L280 200 Z" fill="url(#prism-s)"/>
  <!-- D (front) -->
  <path d="M410 40 L530 40 L490 200 L370 200 Z" fill="url(#prism-d)"/>

  <!-- Single subtle top-edge highlight per prism (light catching the top) -->
  <path d="M230 40 L350 40" stroke="#ffffff" stroke-opacity="0.24" stroke-width="1" fill="none"/>
  <path d="M320 40 L440 40" stroke="#ffffff" stroke-opacity="0.28" stroke-width="1" fill="none"/>
  <path d="M410 40 L530 40" stroke="#ffffff" stroke-opacity="0.34" stroke-width="1" fill="none"/>

  <!-- Letters, each centered on its own prism, consistent baseline and size -->
  <g font-family="'Inter','Helvetica Neue',Arial,sans-serif" font-weight="700" fill="#ffffff" text-anchor="middle">
    <text x="270" y="138" font-size="56">T</text>
    <text x="360" y="138" font-size="56">S</text>
    <text x="450" y="138" font-size="56">D</text>
  </g>

  <!-- === WORDMARK === -->
  <g transform="translate(360, 232)">
    <line x1="-150" y1="0" x2="150" y2="0" stroke="url(#divider)" stroke-width="1"/>
    <text x="0" y="24" font-family="'Inter','Helvetica Neue',Arial,sans-serif" font-size="17" font-weight="400" fill="#9FCAE3" letter-spacing="7" text-anchor="middle">MODERNIZATION</text>
    <text x="0" y="46" font-family="'Inter','Helvetica Neue',Arial,sans-serif" font-size="11" font-weight="500" fill="#6E92B0" letter-spacing="9.5" text-anchor="middle">SOLUTIONS</text>
  </g>
</svg>
